# xmcd CD database file
#
# Track frame offsets:
#	150
#	21942
#	41665
#	44142
#	54012
#	91200
#	103615
#	127977
#	139327
#	155997
#	179675
#
# Disc length: 2737 seconds
#
# Revision: 6
# Processed by: cddbd v1.5.2PL0 Copyright (c) Steve Scherf et al.
# Submitted via: CDex 1.70beta3
#
DISCID=9b0aaf0b
DTITLE=GENESIS - The Lamb Lies Down on Broadway
DYEAR=1974
DGENRE=Progressive Rock
TTITLE0=The Lamb Lies Down On Broadway
TTITLE1=Fly On A Windshield
TTITLE2=Broadway Melody Of 1974
TTITLE3=Cuckoo Cocoon
TTITLE4=In The Cage
TTITLE5=The Grand Parade Of Lifeless Packaging
TTITLE6=Back In N.Y.C.
TTITLE7=Hairless Heart
TTITLE8=Counting Out Time
TTITLE9=Carpet Crawlers
TTITLE10=The Chamber Of 32 Doors
EXTD=YEAR: 1974
EXTT0=
EXTT1=
EXTT2=
EXTT3=
EXTT4=
EXTT5=
EXTT6=
EXTT7=
EXTT8=
EXTT9=
EXTT10=
PLAYORDER=
